# xmcd
#
# Track frame offsets: 
#        150
#        16455
#        27890
#        45525
#        64015
#        84092
#        96890
#        112517
#        130645
#        145800
#        156932
#
# Disc length: 2285 seconds
#
# Revision: 2
# Processed by: cddbd v1.5.2PL0 Copyright (c) Steve Scherf et al.
# Submitted via: ExactAudioCopy v1.0b4
#
DISCID=7a08eb0b
DTITLE=Downchild Blues Band - Road Fever
DYEAR=1980
DGENRE=Electric Blues
TTITLE0=Road Fever
TTITLE1=Stages Of Love
TTITLE2=Caught In The Middle
TTITLE3=Low Tide
TTITLE4=Money Trouble
TTITLE5=What You Gonna Do?
TTITLE6=Try To Fall In Love With Me
TTITLE7=You Don't Do
TTITLE8=She Won't Come Home
TTITLE9=Half Ain't Been Told
TTITLE10=T.V. Mama
EXTD=
EXTT0=
EXTT1=
EXTT2=
EXTT3=
EXTT4=
EXTT5=
EXTT6=
EXTT7=
EXTT8=
EXTT9=
EXTT10=
PLAYORDER=
